<svg viewBox="0 0 639 467" fill="none" xmlns="http://www.w3.org/2000/svg">
<g clip-path="url(#clip0_307_6210)">
<path d="M385.842 206.037H239.43C235.373 206.033 231.484 204.538 228.615 201.881C225.747 199.224 224.133 195.621 224.129 191.863V14.8576C224.134 11.0999 225.747 7.49738 228.615 4.84033C231.484 2.18327 235.373 0.688682 239.43 0.684448H385.842C389.899 0.688684 393.788 2.18327 396.656 4.84033C399.525 7.49738 401.138 11.0999 401.143 14.8576V191.863C401.138 195.621 399.525 199.224 396.656 201.881C393.788 204.538 389.899 206.033 385.842 206.037Z" fill="#F0F0F0"/>
<path d="M385.842 206.721H239.43C235.178 206.717 231.101 205.15 228.094 202.364C225.087 199.579 223.395 195.802 223.391 191.863V14.8576C223.395 10.9185 225.087 7.14205 228.094 4.35668C231.101 1.57131 235.178 0.00450565 239.43 0H385.842C390.095 0.00443678 394.172 1.5712 397.179 4.35658C400.186 7.14196 401.877 10.9185 401.882 14.8576V191.863C401.877 195.802 400.186 199.579 397.179 202.364C394.172 205.15 390.095 206.717 385.842 206.721ZM239.43 1.36902C235.569 1.37305 231.868 2.79546 229.138 5.32419C226.408 7.85293 224.873 11.2815 224.869 14.8576V191.863C224.873 195.439 226.408 198.868 229.138 201.397C231.868 203.926 235.569 205.348 239.43 205.352H385.842C389.703 205.348 393.405 203.926 396.135 201.397C398.864 198.868 400.4 195.439 400.404 191.863V14.8576C400.4 11.2814 398.864 7.85284 396.134 5.3241C393.404 2.79536 389.703 1.37298 385.842 1.36902H239.43Z" fill="#FF4D6D"/>
<path d="M623.699 206.037H477.287C473.23 206.033 469.341 204.538 466.473 201.881C463.604 199.224 461.991 195.621 461.986 191.863V14.8576C461.991 11.0999 463.604 7.49738 466.473 4.84033C469.341 2.18327 473.23 0.688682 477.287 0.684448H623.699C627.756 0.688682 631.645 2.18327 634.514 4.84033C637.382 7.49738 638.995 11.0999 639 14.8576V191.863C638.996 195.621 637.382 199.224 634.514 201.881C631.645 204.538 627.756 206.033 623.699 206.037Z" fill="#F0F0F0"/>
<path d="M310.045 227.943C324.66 227.943 336.508 216.969 336.508 203.43C336.508 189.892 324.66 178.917 310.045 178.917C295.43 178.917 283.582 189.892 283.582 203.43C283.582 216.969 295.43 227.943 310.045 227.943Z" fill="#FF4D6D"/>
<path d="M306.435 216.188C305.978 216.188 305.528 216.09 305.119 215.9C304.71 215.711 304.355 215.436 304.081 215.097L296.861 206.181C296.629 205.894 296.46 205.568 296.365 205.221C296.269 204.874 296.247 204.513 296.302 204.159C296.357 203.804 296.486 203.463 296.683 203.155C296.88 202.847 297.141 202.578 297.45 202.363C297.759 202.148 298.111 201.992 298.486 201.903C298.86 201.814 299.25 201.795 299.632 201.845C300.015 201.896 300.383 202.016 300.716 202.198C301.048 202.381 301.339 202.622 301.571 202.909L306.294 208.742L318.425 191.886C318.859 191.287 319.532 190.872 320.297 190.731C321.061 190.591 321.854 190.737 322.502 191.137C323.15 191.538 323.601 192.16 323.755 192.867C323.909 193.575 323.754 194.31 323.324 194.911L308.885 214.974C308.624 215.337 308.272 215.636 307.86 215.847C307.448 216.059 306.988 216.175 306.517 216.187C306.49 216.188 306.463 216.188 306.435 216.188Z" fill="white"/>
<path d="M287.085 300.698H6.28115C4.61587 300.696 3.01935 300.083 1.84183 298.992C0.664299 297.901 0.00192056 296.422 0 294.88V59.409C0.0018581 57.8664 0.664217 56.3875 1.84176 55.2967C3.0193 54.206 4.61585 53.5924 6.28115 53.5907H287.085C288.751 53.5924 290.347 54.206 291.525 55.2967C292.702 56.3875 293.365 57.8664 293.367 59.409V294.88C293.365 296.422 292.702 297.901 291.525 298.992C290.347 300.083 288.751 300.696 287.085 300.698Z" fill="#3F3D56"/>
<path d="M281.174 295.222H12.1933C10.528 295.22 8.93146 294.607 7.75394 293.516C6.57641 292.425 5.91403 290.946 5.91211 289.404V64.8851C5.91397 63.3425 6.57633 61.8636 7.75387 60.7728C8.93141 59.682 10.528 59.0685 12.1933 59.0668H281.174C282.839 59.0685 284.436 59.682 285.614 60.7728C286.791 61.8636 287.453 63.3425 287.455 64.8851V289.404C287.453 290.946 286.791 292.425 285.613 293.516C284.436 294.607 282.839 295.22 281.174 295.222Z" fill="white"/>
<path d="M25.8585 83.4586C57.5135 82.9487 89.1718 82.8754 120.834 83.2388C152.491 83.6044 184.137 84.4085 215.773 85.6511C233.526 86.3485 251.271 87.184 269.009 88.1575C270.434 88.2356 270.429 86.1818 269.009 86.104C237.404 84.3716 205.777 83.0753 174.126 82.2152C142.48 81.3574 110.825 80.9381 79.1602 80.9576C61.392 80.9685 43.6248 81.1177 25.8585 81.405C24.4335 81.428 24.429 83.4816 25.8585 83.4586Z" fill="#3F3D56"/>
<path d="M246.464 70.5824L260.306 69.6281C261.72 69.5306 261.732 67.4763 260.306 67.5746L246.464 68.5289C245.05 68.6264 245.039 70.6807 246.464 70.5824Z" fill="#3F3D56"/>
<path d="M246.464 82.9036L260.306 81.9493C261.72 81.8518 261.732 79.7975 260.306 79.8957L246.464 80.85C245.05 80.9475 245.039 83.0018 246.464 82.9036Z" fill="#3F3D56"/>
<path d="M245.423 77.2767L265.103 78.9329C266.523 79.0524 266.515 76.9981 265.103 76.8793L245.423 75.2232C244.003 75.1036 244.012 77.1579 245.423 77.2767Z" fill="#3F3D56"/>
<path d="M34.0503 67.8206C33.0877 67.8151 32.1447 68.0722 31.3388 68.5598C30.5328 69.0473 29.8997 69.7438 29.5182 70.5625C29.0914 71.3637 28.9596 72.2723 29.1431 73.1495C29.3265 74.0266 29.815 74.824 30.534 75.4196C31.2098 75.9522 32.0204 76.3174 32.8899 76.4811C33.7595 76.6447 34.6596 76.6014 35.5062 76.3553C36.3721 76.0752 37.1229 75.5534 37.6553 74.8617C38.1877 74.17 38.4756 73.3424 38.4793 72.4929C38.518 71.5504 38.2424 70.6197 37.6899 69.8274C37.1374 69.0351 36.3349 68.4197 35.3916 68.0648C35.1081 67.9935 34.8057 68.0288 34.5503 68.1632C34.2949 68.2975 34.1072 68.5199 34.0281 68.7819C33.9582 69.0442 33.9994 69.3214 34.1435 69.5563C34.2875 69.7913 34.5232 69.9662 34.8022 70.045C34.9954 70.1141 34.6258 69.957 34.8061 70.048C34.8803 70.0855 34.9559 70.1193 35.0287 70.1592C35.0906 70.1932 35.1499 70.2304 35.2101 70.2668C35.417 70.3919 35.1091 70.175 35.2414 70.2874C35.356 70.3849 35.4697 70.4801 35.5739 70.5877C35.6133 70.6284 35.7678 70.7415 35.6478 70.6625C35.556 70.602 35.6124 70.6162 35.6478 70.6648C35.6746 70.7016 35.703 70.7375 35.7295 70.7746C35.816 70.8957 35.8945 71.0215 35.9648 71.1513C35.9811 71.1813 35.996 71.2121 36.0125 71.242C36.0436 71.298 36.0886 71.3126 36.0156 71.2425C35.9459 71.1755 35.9903 71.1801 36.0152 71.2445C36.0316 71.2869 36.0495 71.3288 36.0655 71.3713C36.1174 71.5098 36.1611 71.6509 36.1962 71.7939C36.2124 71.86 36.2255 71.9265 36.2394 71.993C36.2889 72.2288 36.2322 71.8464 36.2442 72.0215C36.2542 72.1678 36.2658 72.3124 36.2631 72.4593C36.2618 72.5264 36.2587 72.5935 36.2536 72.6606C36.2511 72.694 36.247 72.7273 36.2447 72.7608C36.2332 72.9219 36.2328 72.7019 36.2571 72.6868C36.2065 72.8236 36.1729 72.9653 36.157 73.1092C36.1371 73.173 36.1135 73.2354 36.0914 73.2986C36.0143 73.5189 36.1639 73.1785 36.0817 73.3291C36.014 73.4584 35.9384 73.584 35.8552 73.7053C35.8191 73.7562 35.6829 73.8709 35.7943 73.791C35.9151 73.7044 35.7309 73.8536 35.6916 73.892C35.6411 73.9414 35.5887 73.989 35.5344 74.0349C35.4996 74.0663 35.4629 74.0959 35.4245 74.1234C35.4174 74.1201 35.6097 74.0045 35.5061 74.0657C35.3743 74.1435 35.2496 74.2267 35.1108 74.2944C35.0947 74.3023 34.9172 74.3785 34.918 74.3812C34.9103 74.3535 35.1461 74.3043 34.9842 74.3527C34.9502 74.3629 34.9169 74.3752 34.883 74.3858C34.7356 74.4317 34.5852 74.4688 34.4327 74.4969C34.3978 74.5033 34.3609 74.5066 34.3265 74.5148C34.2119 74.5423 34.436 74.4987 34.4427 74.5023C34.358 74.4989 34.2732 74.5059 34.1905 74.523C34.0332 74.5313 33.8755 74.5313 33.7183 74.523C33.6819 74.521 33.6456 74.5177 33.6092 74.5157C33.5247 74.5112 33.4628 74.4548 33.5752 74.516C33.6619 74.5632 33.6547 74.5288 33.5778 74.5156C33.5419 74.5095 33.5058 74.5043 33.4699 74.498C33.3142 74.471 33.1603 74.4361 33.0088 74.3934C32.9273 74.3704 32.8474 74.3436 32.7669 74.3176C32.7319 74.3082 32.6978 74.296 32.665 74.2812C32.6645 74.2728 32.8723 74.3732 32.7626 74.3184C32.6241 74.2493 32.4809 74.1914 32.3457 74.1158C32.2736 74.0755 32.2043 74.0317 32.1341 73.9885C32.1033 73.9713 32.0739 73.9518 32.0464 73.9303C32.0487 73.9216 32.2182 74.0672 32.1293 73.9886C32.0167 73.8892 31.8963 73.8003 31.7897 73.6945C31.7653 73.6703 31.7423 73.645 31.718 73.6207L31.6945 73.5958C31.6344 73.5278 31.6333 73.5281 31.6911 73.5968C31.7499 73.6128 31.7472 73.6726 31.6915 73.595C31.6716 73.5673 31.6505 73.5405 31.6307 73.5128C31.5406 73.394 31.4639 73.267 31.4015 73.1338C31.4069 73.1299 31.4976 73.3809 31.4283 73.1915C31.4152 73.1557 31.4005 73.1205 31.3876 73.0847C31.3622 73.0135 31.3397 72.9416 31.3203 72.8689C31.3012 72.7968 31.2914 72.7225 31.272 72.6508C31.2394 72.5299 31.2911 72.7462 31.2852 72.7408C31.2667 72.7239 31.2746 72.619 31.2732 72.5939C31.2643 72.4328 31.2841 72.2764 31.2872 72.1163C31.2896 71.9922 31.2761 72.213 31.2733 72.2065C31.274 72.1694 31.2811 72.1325 31.2944 72.0975C31.3144 72.013 31.3331 71.9286 31.3577 71.8451C31.3858 71.7495 31.4182 71.655 31.4548 71.5617C31.4685 71.5268 31.4852 71.4924 31.4979 71.4572C31.5446 71.3283 31.4056 71.6129 31.4822 71.4967C31.5877 71.3367 31.6662 71.1636 31.7782 71.0056C31.8047 70.9682 31.966 70.7596 31.8804 70.8649C31.7951 70.9698 31.968 70.771 32.0008 70.7372C32.1367 70.597 32.2966 70.4818 32.4374 70.3475C32.5207 70.2681 32.3792 70.3867 32.3709 70.3922C32.4145 70.3634 32.4572 70.3334 32.5013 70.3052C32.5783 70.2561 32.6571 70.2097 32.7378 70.1659C32.8288 70.1165 32.9316 70.0797 33.0197 70.0275C33.1239 69.9658 32.9401 70.0546 32.9368 70.0564C32.9844 70.0346 33.0341 70.017 33.0853 70.004C33.1711 69.9758 33.5444 69.8266 33.6227 69.8733C33.6192 69.8712 33.3393 69.8941 33.5656 69.8807C33.619 69.8775 33.6723 69.8727 33.7258 69.8706C33.8341 69.8665 33.9421 69.869 34.0503 69.8742C34.3437 69.8724 34.6245 69.7636 34.832 69.5715C35.0394 69.3793 35.1568 69.1192 35.1587 68.8474C35.1525 68.5769 35.0337 68.3191 34.8271 68.1278C34.6206 67.9365 34.3423 67.8265 34.0503 67.8206Z" fill="#3F3D56"/>
<path d="M49.5689 67.8206C48.6063 67.8151 47.6633 68.0722 46.8573 68.5598C46.0514 69.0473 45.4182 69.7438 45.0367 70.5625C44.6099 71.3637 44.4782 72.2723 44.6616 73.1495C44.8451 74.0266 45.3336 74.824 46.0525 75.4196C46.7283 75.9522 47.5389 76.3174 48.4085 76.4811C49.278 76.6447 50.1782 76.6014 51.0248 76.3553C51.8906 76.0752 52.6414 75.5534 53.1739 74.8617C53.7063 74.17 53.9942 73.3424 53.9979 72.4929C54.0366 71.5504 53.7609 70.6197 53.2084 69.8274C52.656 69.0351 51.8535 68.4197 50.9101 68.0648C50.6267 67.9935 50.3243 68.0288 50.0689 68.1632C49.8135 68.2975 49.6257 68.5199 49.5466 68.7819C49.4767 69.0442 49.518 69.3214 49.662 69.5563C49.806 69.7913 50.0418 69.9662 50.3208 70.045C50.514 70.1141 50.1443 69.957 50.3247 70.048C50.3989 70.0855 50.4744 70.1193 50.5472 70.1592C50.6092 70.1932 50.6684 70.2304 50.7287 70.2668C50.9356 70.3919 50.6277 70.175 50.7599 70.2874C50.8746 70.3849 50.9882 70.4801 51.0925 70.5877C51.1319 70.6284 51.2863 70.7415 51.1663 70.6625C51.0745 70.602 51.1309 70.6162 51.1663 70.6648C51.1932 70.7016 51.2216 70.7375 51.2481 70.7746C51.3345 70.8957 51.4131 71.0215 51.4833 71.1513C51.4996 71.1813 51.5145 71.2121 51.5311 71.242C51.5621 71.298 51.6071 71.3126 51.5342 71.2425C51.4644 71.1755 51.5088 71.1801 51.5338 71.2445C51.5502 71.2869 51.5681 71.3288 51.584 71.3713C51.636 71.5098 51.6796 71.6509 51.7147 71.7939C51.731 71.86 51.744 71.9265 51.758 71.993C51.8075 72.2288 51.7508 71.8464 51.7628 72.0215C51.7727 72.1678 51.7844 72.3124 51.7816 72.4593C51.7804 72.5264 51.7772 72.5935 51.7722 72.6606C51.7696 72.694 51.7656 72.7273 51.7632 72.7608C51.7517 72.9219 51.7513 72.7019 51.7757 72.6868C51.725 72.8236 51.6914 72.9653 51.6755 73.1092C51.6557 73.173 51.6321 73.2354 51.61 73.2986C51.5329 73.5189 51.6824 73.1785 51.6002 73.3291C51.5326 73.4584 51.457 73.584 51.3738 73.7053C51.3376 73.7562 51.2015 73.8709 51.3128 73.791C51.4337 73.7044 51.2495 73.8536 51.2102 73.892C51.1597 73.9414 51.1073 73.989 51.053 74.0349C51.0182 74.0663 50.9815 74.0959 50.943 74.1234C50.936 74.1201 51.1282 74.0045 51.0246 74.0657C50.8929 74.1435 50.7682 74.2267 50.6294 74.2944C50.6132 74.3023 50.4358 74.3785 50.4365 74.3812C50.4289 74.3535 50.6646 74.3043 50.5028 74.3527C50.4688 74.3629 50.4354 74.3752 50.4015 74.3858C50.2542 74.4317 50.1038 74.4688 49.9513 74.4969C49.9164 74.5033 49.8794 74.5066 49.845 74.5148C49.7305 74.5423 49.9545 74.4987 49.9613 74.5023C49.8766 74.4989 49.7918 74.5059 49.709 74.523C49.5518 74.5313 49.3941 74.5313 49.2368 74.523C49.2004 74.521 49.1641 74.5177 49.1278 74.5157C49.0433 74.5112 48.9813 74.4548 49.0937 74.516C49.1804 74.5632 49.1732 74.5288 49.0964 74.5156C49.0605 74.5095 49.0244 74.5043 48.9884 74.498C48.8328 74.471 48.6788 74.4361 48.5273 74.3934C48.4458 74.3704 48.3659 74.3436 48.2855 74.3176C48.2505 74.3082 48.2163 74.296 48.1835 74.2812C48.183 74.2728 48.3908 74.3732 48.2811 74.3184C48.1427 74.2493 47.9995 74.1914 47.8643 74.1158C47.7921 74.0755 47.7228 74.0317 47.6527 73.9885C47.6218 73.9713 47.5925 73.9518 47.565 73.9303C47.5673 73.9216 47.7368 74.0672 47.6478 73.9886C47.5353 73.8892 47.4149 73.8003 47.3083 73.6945C47.2839 73.6703 47.2608 73.645 47.2365 73.6207L47.213 73.5958C47.1529 73.5278 47.1518 73.5281 47.2097 73.5968C47.2684 73.6128 47.2657 73.6726 47.21 73.595C47.1901 73.5673 47.169 73.5405 47.1492 73.5128C47.0592 73.394 46.9824 73.267 46.9201 73.1338C46.9255 73.1299 47.0161 73.3809 46.9468 73.1915C46.9337 73.1557 46.919 73.1205 46.9062 73.0847C46.8807 73.0135 46.8583 72.9416 46.8389 72.8689C46.8197 72.7968 46.8099 72.7225 46.7906 72.6508C46.758 72.5299 46.8096 72.7462 46.8037 72.7408C46.7853 72.7239 46.7931 72.619 46.7917 72.5939C46.7829 72.4328 46.8027 72.2764 46.8058 72.1163C46.8082 71.9922 46.7947 72.213 46.7919 72.2065C46.7926 72.1694 46.7997 72.1325 46.8129 72.0975C46.833 72.013 46.8517 71.9286 46.8762 71.8451C46.9044 71.7495 46.9367 71.655 46.9734 71.5617C46.9871 71.5268 47.0038 71.4924 47.0165 71.4572C47.0631 71.3283 46.9241 71.6129 47.0008 71.4967C47.1062 71.3367 47.1848 71.1636 47.2967 71.0056C47.3233 70.9682 47.4846 70.7596 47.399 70.8649C47.3137 70.9698 47.4866 70.771 47.5193 70.7372C47.6553 70.597 47.8152 70.4818 47.9559 70.3475C48.0393 70.2681 47.8978 70.3867 47.8894 70.3922C47.933 70.3634 47.9757 70.3334 48.0199 70.3052C48.0968 70.2561 48.1757 70.2097 48.2564 70.1659C48.3473 70.1165 48.4502 70.0797 48.5383 70.0275C48.6424 69.9658 48.4587 70.0546 48.4554 70.0564C48.5029 70.0346 48.5526 70.017 48.6038 70.004C48.6897 69.9758 49.063 69.8266 49.1413 69.8733C49.1377 69.8712 48.8578 69.8941 49.0841 69.8807C49.1376 69.8775 49.1908 69.8727 49.2444 69.8706C49.3527 69.8665 49.4606 69.869 49.5689 69.8742C49.8622 69.8724 50.1431 69.7636 50.3505 69.5715C50.558 69.3793 50.6754 69.1192 50.6773 68.8474C50.671 68.5769 50.5522 68.3191 50.3457 68.1278C50.1392 67.9365 49.8609 67.8265 49.5689 67.8206Z" fill="#3F3D56"/>
<path d="M65.0874 67.8206C64.1248 67.8151 63.1818 68.0722 62.3759 68.5598C61.5699 69.0473 60.9368 69.7438 60.5553 70.5625C60.1285 71.3637 59.9967 72.2723 60.1802 73.1495C60.3636 74.0266 60.8522 74.824 61.5711 75.4196C62.2469 75.9522 63.0575 76.3174 63.927 76.4811C64.7966 76.6447 65.6967 76.6014 66.5433 76.3553C67.4092 76.0752 68.16 75.5534 68.6924 74.8617C69.2248 74.17 69.5127 73.3424 69.5164 72.4929C69.5551 71.5504 69.2795 70.6197 68.727 69.8274C68.1745 69.0351 67.372 68.4197 66.4287 68.0648C66.1452 67.9935 65.8429 68.0288 65.5874 68.1632C65.332 68.2975 65.1443 68.5199 65.0652 68.7819C64.9953 69.0442 65.0366 69.3214 65.1806 69.5563C65.3246 69.7913 65.5603 69.9662 65.8393 70.045C66.0325 70.1141 65.6629 69.957 65.8433 70.048C65.9174 70.0855 65.993 70.1193 66.0658 70.1592C66.1277 70.1932 66.187 70.2304 66.2472 70.2668C66.4541 70.3919 66.1462 70.175 66.2785 70.2874C66.3931 70.3849 66.5068 70.4801 66.611 70.5877C66.6505 70.6284 66.8049 70.7415 66.6849 70.6625C66.593 70.602 66.6495 70.6162 66.6848 70.6648C66.7117 70.7016 66.7401 70.7375 66.7666 70.7746C66.853 70.8957 66.9316 71.0215 67.0019 71.1513C67.0182 71.1813 67.033 71.2121 67.0496 71.242C67.0807 71.298 67.1257 71.3126 67.0527 71.2425C66.983 71.1755 67.0274 71.1801 67.0523 71.2445C67.0687 71.2869 67.0866 71.3288 67.1025 71.3713C67.1545 71.5098 67.1982 71.6509 67.2332 71.7939C67.2495 71.86 67.2626 71.9265 67.2765 71.993C67.326 72.2288 67.2693 71.8464 67.2813 72.0215C67.2912 72.1678 67.3029 72.3124 67.3001 72.4593C67.2989 72.5264 67.2957 72.5935 67.2907 72.6606C67.2881 72.694 67.2841 72.7273 67.2817 72.7608C67.2702 72.9219 67.2699 72.7019 67.2942 72.6868C67.2436 72.8236 67.2099 72.9653 67.194 73.1092C67.1742 73.173 67.1506 73.2354 67.1285 73.2986C67.0514 73.5189 67.2009 73.1785 67.1187 73.3291C67.0511 73.4584 66.9755 73.584 66.8923 73.7053C66.8562 73.7562 66.72 73.8709 66.8313 73.791C66.9522 73.7044 66.768 73.8536 66.7287 73.892C66.6782 73.9414 66.6258 73.989 66.5715 74.0349C66.5367 74.0663 66.5 74.0959 66.4615 74.1234C66.4545 74.1201 66.6467 74.0045 66.5431 74.0657C66.4114 74.1435 66.2867 74.2267 66.1479 74.2944C66.1317 74.3023 65.9543 74.3785 65.955 74.3812C65.9474 74.3535 66.1831 74.3043 66.0213 74.3527C65.9873 74.3629 65.954 74.3752 65.9201 74.3858C65.7727 74.4317 65.6223 74.4688 65.4698 74.4969C65.4349 74.5033 65.398 74.5066 65.3636 74.5148C65.249 74.5423 65.4731 74.4987 65.4798 74.5023C65.3951 74.4989 65.3103 74.5059 65.2275 74.523C65.0703 74.5313 64.9126 74.5313 64.7554 74.523C64.719 74.521 64.6827 74.5177 64.6463 74.5157C64.5618 74.5112 64.4998 74.4548 64.6122 74.516C64.699 74.5632 64.6917 74.5288 64.6149 74.5156C64.579 74.5095 64.5429 74.5043 64.507 74.498C64.3513 74.471 64.1974 74.4361 64.0459 74.3934C63.9643 74.3704 63.8844 74.3436 63.804 74.3176C63.769 74.3082 63.7349 74.296 63.702 74.2812C63.7016 74.2728 63.9093 74.3732 63.7996 74.3184C63.6612 74.2493 63.518 74.1914 63.3828 74.1158C63.3106 74.0755 63.2413 74.0317 63.1712 73.9885C63.1403 73.9713 63.111 73.9518 63.0835 73.9303C63.0858 73.9216 63.2553 74.0672 63.1663 73.9886C63.0538 73.8892 62.9334 73.8003 62.8268 73.6945C62.8024 73.6703 62.7793 73.645 62.7551 73.6207L62.7315 73.5958C62.6714 73.5278 62.6703 73.5281 62.7282 73.5968C62.7869 73.6128 62.7843 73.6726 62.7285 73.595C62.7087 73.5673 62.6876 73.5405 62.6677 73.5128C62.5777 73.394 62.5009 73.267 62.4386 73.1338C62.444 73.1299 62.5346 73.3809 62.4653 73.1915C62.4522 73.1557 62.4375 73.1205 62.4247 73.0847C62.3992 73.0135 62.3768 72.9416 62.3574 72.8689C62.3383 72.7968 62.3285 72.7225 62.3091 72.6508C62.2765 72.5299 62.3282 72.7462 62.3223 72.7408C62.3038 72.7239 62.3117 72.619 62.3103 72.5939C62.3014 72.4328 62.3212 72.2764 62.3243 72.1163C62.3267 71.9922 62.3132 72.213 62.3105 72.2065C62.3111 72.1694 62.3182 72.1325 62.3315 72.0975C62.3516 72.013 62.3702 71.9286 62.3948 71.8451C62.4229 71.7495 62.4553 71.655 62.4919 71.5617C62.5056 71.5268 62.5223 71.4924 62.535 71.4572C62.5817 71.3283 62.4427 71.6129 62.5193 71.4967C62.6248 71.3367 62.7033 71.1636 62.8153 71.0056C62.8418 70.9682 63.0031 70.7596 62.9175 70.8649C62.8323 70.9698 63.0051 70.771 63.0379 70.7372C63.1738 70.597 63.3337 70.4818 63.4745 70.3475C63.5578 70.2681 63.4163 70.3867 63.408 70.3922C63.4516 70.3634 63.4943 70.3334 63.5384 70.3052C63.6154 70.2561 63.6942 70.2097 63.775 70.1659C63.8659 70.1165 63.9687 70.0797 64.0568 70.0275C64.161 69.9658 63.9772 70.0546 63.9739 70.0564C64.0215 70.0346 64.0712 70.017 64.1224 70.004C64.2082 69.9758 64.5815 69.8266 64.6598 69.8733C64.6563 69.8712 64.3764 69.8941 64.6027 69.8807C64.6561 69.8775 64.7094 69.8727 64.7629 69.8706C64.8713 69.8665 64.9792 69.869 65.0874 69.8742C65.3808 69.8724 65.6616 69.7636 65.8691 69.5715C66.0765 69.3793 66.1939 69.1192 66.1958 68.8474C66.1896 68.5769 66.0708 68.3191 65.8643 68.1278C65.6577 67.9365 65.3794 67.8265 65.0874 67.8206Z" fill="#3F3D56"/>
<path d="M32.7007 121.748L33.6892 156.798L34.6777 191.847C34.8025 196.27 34.128 202.303 38.9708 204.893C40.991 205.974 43.4064 206.211 45.696 206.27C48.7353 206.348 51.7844 206.29 54.8249 206.293L92.6965 206.33C97.6724 206.335 103.138 206.201 106.703 202.488C109.679 199.389 110.522 195.093 110.82 191.085C111.214 185.794 111.025 180.438 111.076 175.137L111.246 157.522L111.416 139.907C111.468 134.556 111.741 129.161 111.488 123.813C111.294 119.733 110.55 115.375 107.596 112.169C104.232 108.516 98.9123 108.023 94.0604 107.879C81.512 107.507 68.9614 107.193 56.4121 106.85C53.525 106.771 50.6295 106.627 47.7408 106.663C45.1718 106.617 42.6133 106.98 40.177 107.736C36.1196 109.143 32.9501 112.518 33.0912 116.705C33.1003 117.582 33.3093 118.447 33.7043 119.244C34.0994 120.041 34.6717 120.751 35.3837 121.329C36.4666 122.178 38.0424 120.732 36.9513 119.877C33.9938 117.559 35.4261 113.217 38.0114 111.16C41.7572 108.18 47.6297 108.663 52.1974 108.788L87.7473 109.759C90.5042 109.835 93.2689 109.86 96.0226 110.01C98.4807 110.144 101.048 110.44 103.249 111.537C107.053 113.433 108.538 117.323 109.038 121.086C109.667 125.82 109.288 130.705 109.242 135.461L109.08 152.22L108.76 185.398C108.721 189.433 108.789 193.598 107.323 197.457C106.693 199.247 105.539 200.84 103.99 202.059C102.045 203.366 99.7208 204.103 97.3186 204.172C94.6202 204.374 91.891 204.276 89.1864 204.273L79.9495 204.264L62.2144 204.247L52.9775 204.237C50.2784 204.235 47.5597 204.322 44.864 204.185C42.795 204.08 40.4863 203.748 38.9619 202.323C37.2544 200.726 37.0959 198.26 37.0175 196.142C36.2013 174.087 35.7712 152.014 35.149 129.954L34.9175 121.748C34.8803 120.429 32.6634 120.424 32.7007 121.748Z" fill="#3F3D56"/>
<path d="M173.103 121.748L174.092 156.798L175.08 191.847C175.205 196.27 174.53 202.303 179.373 204.893C181.393 205.974 183.809 206.211 186.098 206.27C189.138 206.348 192.187 206.29 195.227 206.293L233.099 206.33C238.075 206.335 243.54 206.201 247.105 202.488C250.081 199.389 250.924 195.093 251.223 191.085C251.616 185.794 251.427 180.438 251.479 175.137L251.649 157.522L251.819 139.907C251.87 134.556 252.143 129.161 251.89 123.813C251.697 119.733 250.952 115.375 247.999 112.169C244.634 108.516 239.315 108.023 234.463 107.879C221.914 107.507 209.364 107.193 196.814 106.85C193.927 106.771 191.032 106.627 188.143 106.663C185.574 106.617 183.016 106.98 180.579 107.736C176.522 109.143 173.352 112.518 173.494 116.705C173.503 117.582 173.712 118.447 174.107 119.244C174.502 120.041 175.074 120.751 175.786 121.329C176.869 122.178 178.445 120.732 177.354 119.877C174.396 117.559 175.828 113.217 178.414 111.16C182.16 108.18 188.032 108.663 192.6 108.788L228.15 109.759C230.907 109.835 233.671 109.86 236.425 110.01C238.883 110.144 241.451 110.44 243.651 111.537C247.455 113.433 248.94 117.323 249.44 121.086C250.069 125.82 249.691 130.705 249.645 135.461L249.483 152.22L249.163 185.398C249.124 189.433 249.191 193.598 247.725 197.457C247.095 199.247 245.942 200.84 244.393 202.059C242.448 203.366 240.123 204.103 237.721 204.172C235.023 204.374 232.293 204.276 229.589 204.273L220.352 204.264L202.617 204.247L193.38 204.237C190.681 204.235 187.962 204.322 185.266 204.185C183.197 204.08 180.889 203.748 179.364 202.323C177.657 200.726 177.498 198.26 177.42 196.142C176.604 174.087 176.173 152.014 175.551 129.954L175.32 121.748C175.283 120.429 173.066 120.424 173.103 121.748Z" fill="#3F3D56"/>
<path d="M70.967 213.918C70.192 213.227 69.2382 212.733 68.1973 212.482C67.1563 212.231 66.0632 212.232 65.023 212.486C63.9895 212.749 63.0316 213.22 62.2185 213.867C61.4053 214.513 60.7571 215.319 60.3205 216.226C58.226 220.358 60.1024 225.174 62.9964 228.548C65.6856 231.683 70.0545 233.749 74.3105 232.103C76.2495 231.334 77.8787 230.019 78.9683 228.346C80.0578 226.673 80.5528 224.725 80.3832 222.777C79.8467 218.189 75.8219 214.473 71.0956 213.353C69.7128 213.025 69.1229 215.005 70.5062 215.333C72.1492 215.702 73.67 216.436 74.9365 217.474C76.203 218.511 77.1768 219.819 77.7732 221.284C78.2964 222.717 78.319 224.267 77.8378 225.713C77.3566 227.159 76.3959 228.428 75.0922 229.34C68.4863 234.039 60.9304 225.054 61.6711 219.176C61.7501 218.309 62.0435 217.47 62.5285 216.725C63.0135 215.979 63.6771 215.347 64.4679 214.877C65.238 214.457 66.1335 214.279 67.0218 214.367C67.9101 214.456 68.7439 214.808 69.3994 215.37C69.6095 215.552 69.8878 215.651 70.1754 215.647C70.463 215.642 70.7374 215.535 70.9408 215.346C71.1442 215.158 71.2606 214.903 71.2655 214.637C71.2704 214.371 71.1633 214.113 70.967 213.918Z" fill="#3F3D56"/>
<path d="M206.401 142.651C203.814 141.827 200.811 141.008 198.134 141.974C195.608 142.886 194.218 145.117 193.944 147.539C193.639 150.24 194.879 152.816 196.193 155.155C197.774 157.967 199.404 160.757 201.01 163.557L206.566 173.243C206.693 173.433 206.882 173.579 207.106 173.661C207.329 173.743 207.576 173.756 207.808 173.697C208.04 173.639 208.245 173.513 208.394 173.338C208.542 173.163 208.626 172.948 208.632 172.725C208.318 169.477 208.874 166.208 210.252 163.207C211.673 160.174 213.995 157.613 215.645 154.697C217.165 152.012 218.178 148.932 217.373 145.906C216.722 143.459 214.8 141.077 212.031 140.508C210.632 140.18 209.152 140.325 207.858 140.917C206.565 141.509 205.541 142.509 204.972 143.738C204.449 144.968 206.592 145.501 207.11 144.284C207.847 142.55 210.428 142.018 212.149 142.682C214.39 143.546 215.453 146.028 215.451 148.137C215.447 151.021 213.852 153.656 212.234 156.024C210.6 158.416 208.882 160.73 207.795 163.396C206.597 166.373 206.126 169.559 206.415 172.725L208.481 172.207C204.873 165.917 201.066 159.692 197.661 153.307C196.351 150.851 195.173 147.539 197.181 145.09C199.239 142.579 203.169 143.789 205.811 144.631C207.163 145.062 207.744 143.079 206.401 142.651Z" fill="#3F3D56"/>
<path d="M65.3059 219.655L68.5702 225.52C68.6833 225.69 68.8472 225.827 69.0422 225.913C69.2371 225.999 69.4548 226.031 69.6689 226.005C69.883 225.979 70.0844 225.896 70.249 225.767C70.4135 225.637 70.534 225.466 70.5961 225.275C71.4465 221.215 73.4839 217.449 76.4862 214.388C77.4467 213.414 75.8832 211.957 74.9186 212.936C71.6431 216.247 69.4089 220.325 68.4584 224.729L70.4844 224.483L67.2201 218.619C66.5661 217.444 64.6525 218.481 65.3059 219.655Z" fill="#3F3D56"/>
<path d="M102.333 192.581L76.5404 213.683C76.395 213.802 76.2059 213.865 76.012 213.858C75.8181 213.852 75.6343 213.777 75.4984 213.649C75.3624 213.52 75.2848 213.349 75.2814 213.169C75.278 212.99 75.3491 212.816 75.4801 212.683L99.5118 188.378L102.333 192.581Z" fill="#3F3D56"/>
<path d="M95.2494 453.326C94.855 453.343 94.4646 453.247 94.131 453.052C93.7974 452.856 93.5368 452.57 93.3845 452.233C93.2322 451.895 93.1956 451.523 93.2795 451.165C93.3635 450.808 93.564 450.483 93.8539 450.235L93.9858 449.749C93.9685 449.71 93.951 449.671 93.9334 449.633C92.1608 445.717 80.8495 456.632 80.3605 460.312C80.1451 461.938 80.236 463.587 80.629 465.185C76.9651 457.781 75.0625 449.735 75.0503 441.59C75.0495 439.547 75.1721 437.504 75.4174 435.473C75.6202 433.808 75.9015 432.155 76.2614 430.514C78.2252 421.608 82.4415 413.261 88.5641 406.158C92.0656 406.339 95.1343 405.845 95.4307 399.559C95.4834 398.441 96.3788 397.472 96.576 396.371C96.2418 396.411 95.902 396.437 95.5677 396.457C95.4636 396.462 95.354 396.467 95.2498 396.472L95.2106 396.474C94.8432 396.489 94.4789 396.406 94.1615 396.234C93.8441 396.062 93.5871 395.808 93.4216 395.504C93.256 395.2 93.1889 394.858 93.2284 394.519C93.2678 394.18 93.4121 393.86 93.6438 393.595C93.7882 393.431 93.9326 393.266 94.0771 393.102C94.2963 392.848 94.521 392.599 94.7402 392.345C94.7655 392.321 94.7893 392.296 94.8114 392.269C95.0635 391.98 95.3156 391.696 95.5677 391.406C95.1076 390.745 94.4887 390.19 93.7593 389.787C91.2329 388.416 87.7476 389.366 85.9227 391.482C84.0924 393.599 83.7472 396.569 84.3828 399.214C85.0079 401.464 86.042 403.599 87.4407 405.528C87.3037 405.691 87.1612 405.848 87.0242 406.011C84.5198 408.994 82.337 412.197 80.5072 415.574C81.0249 411.828 74.6941 398.3 72.2459 395.435C69.3051 391.993 63.2748 393.495 62.7567 397.858C62.7517 397.901 62.7468 397.943 62.742 397.985C63.1056 398.175 63.4616 398.377 63.8099 398.59C64.2474 398.861 64.5865 399.248 64.7826 399.7C64.9787 400.153 65.0227 400.649 64.9089 401.125C64.795 401.601 64.5287 402.034 64.1447 402.367C63.7607 402.7 63.277 402.919 62.7569 402.993L62.7036 403C57.836 409.438 73.4405 426.195 77.3464 422.432C75.508 427.259 74.3548 432.286 73.9159 437.387C73.6674 440.397 73.6821 443.42 73.9597 446.428L73.9433 446.321C73.0754 439.771 58.1868 430.031 53.8391 430.843C51.3346 431.31 48.8677 431.204 49.248 433.544C49.254 433.581 49.2602 433.619 49.2665 433.656C49.9413 433.911 50.5984 434.204 51.2338 434.534C51.5975 434.724 51.9534 434.926 52.3017 435.139C52.7392 435.41 53.0783 435.797 53.2744 436.249C53.4705 436.702 53.5145 437.198 53.4007 437.674C53.2868 438.15 53.0205 438.583 52.6365 438.916C52.2525 439.25 51.7688 439.468 51.2487 439.542L51.1954 439.55C51.157 439.555 51.1241 439.56 51.0858 439.565C48.8701 446.627 65.3018 458.024 75.2913 454.398H75.2969C76.2868 458.383 77.7212 462.261 79.5768 465.972H94.8662C94.921 465.814 94.9703 465.652 95.0197 465.494C93.6045 465.577 92.1836 465.499 90.789 465.261C91.9234 463.972 93.0578 462.672 94.1922 461.383C94.2175 461.359 94.2412 461.333 94.2634 461.307C94.8388 460.647 95.4197 459.992 95.9951 459.332L95.9954 459.331C96.0261 457.308 95.775 455.29 95.2494 453.326ZM77.741 421.422L77.749 421.412L77.741 421.432V421.422ZM74.3543 449.702L74.2228 449.428C74.2283 449.23 74.2283 449.032 74.2228 448.829C74.2228 448.773 74.2118 448.717 74.2118 448.662C74.2611 449.012 74.305 449.362 74.3598 449.712L74.3543 449.702Z" fill="#FF4D6D"/>
<path d="M265.191 465.631H49.3281V467H265.191V465.631Z" fill="#CCCCCC"/>
<path d="M550.449 92.6105L550.432 92.6252C548.748 91.0386 546.469 90.1129 544.069 90.0397C541.668 89.9666 539.329 90.7517 537.536 92.2323C535.744 93.713 534.634 95.7758 534.438 97.9933C534.243 100.211 534.975 102.413 536.484 104.144L536.467 104.159L548.933 117.111L562.916 105.563C563.836 104.805 564.585 103.887 565.121 102.86C565.657 101.834 565.969 100.72 566.04 99.582C566.111 98.4438 565.939 97.3039 565.534 96.2273C565.129 95.1507 564.499 94.1585 563.68 93.3076C562.861 92.4566 561.869 91.7635 560.761 91.2679C559.653 90.7723 558.45 90.4839 557.221 90.4191C555.992 90.3544 554.762 90.5146 553.6 90.8906C552.438 91.2666 551.367 91.8511 550.449 92.6105Z" fill="#FF4D6D"/>
</g>
<defs>
<clipPath id="clip0_307_6210">
<rect width="639" height="467" fill="white"/>
</clipPath>
</defs>
</svg>
